<svg xmlns="http://www.w3.org/2000/svg" viewBox="0 0 24 24" fill="currentColor" aria-hidden="true">
  <path d="M7.75 2h8.5A5.75 5.75 0 0 1 22 7.75v8.5A5.75 5.75 0 0 1 16.25 22h-8.5A5.75 5.75 0 0 1 2 16.25v-8.5A5.75 5.75 0 0 1 7.75 2Zm0 1.5A4.25 4.25 0 0 0 3.5 7.75v8.5a4.25 4.25 0 0 0 4.25 4.25h8.5a4.25 4.25 0 0 0 4.25-4.25v-8.5a4.25 4.25 0 0 0-4.25-4.25h-8.5Zm8.9 1.2a1.15 1.15 0 1 1 0 2.3 1.15 1.15 0 0 1 0-2.3ZM12 7a5 5 0 1 1 0 10 5 5 0 0 1 0-10Zm0 1.5a3.5 3.5 0 1 0 0 7 3.5 3.5 0 0 0 0-7Z"/>
</svg>
