<?xml version="1.0" encoding="UTF-8" standalone="no"?>
<!-- Created with Inkscape (http://www.inkscape.org/) -->

<svg
   version="1.1"
   id="svg1"
   width="592.7782"
   height="283.06094"
   viewBox="0 0 592.77819 283.06094"
   sodipodi:docname="logoSinFondo.svg"
   inkscape:version="1.4.2 (f4327f4, 2025-05-13)"
   xmlns:inkscape="http://www.inkscape.org/namespaces/inkscape"
   xmlns:sodipodi="http://sodipodi.sourceforge.net/DTD/sodipodi-0.dtd"
   xmlns="http://www.w3.org/2000/svg"
   xmlns:svg="http://www.w3.org/2000/svg">
  <sodipodi:namedview
     id="namedview1"
     pagecolor="#ffffff"
     bordercolor="#000000"
     borderopacity="0.25"
     inkscape:showpageshadow="2"
     inkscape:pageopacity="0.0"
     inkscape:pagecheckerboard="0"
     inkscape:deskcolor="#d1d1d1"
     inkscape:zoom="1.5282826"
     inkscape:cx="314.07803"
     inkscape:cy="139.04496"
     inkscape:window-width="2560"
     inkscape:window-height="1494"
     inkscape:window-x="-11"
     inkscape:window-y="1609"
     inkscape:window-maximized="1"
     inkscape:current-layer="layer-MC0" />
  <defs
     id="defs1">
    <clipPath
       clipPathUnits="userSpaceOnUse"
       id="clipPath3">
      <path
         d="M 0,595.276 H 841.89 V 0 H 0 Z"
         transform="translate(-247.0846,-305.70061)"
         id="path3" />
    </clipPath>
    <clipPath
       clipPathUnits="userSpaceOnUse"
       id="clipPath5">
      <path
         d="M 0,595.276 H 841.89 V 0 H 0 Z"
         transform="translate(-366.56941,-308.30001)"
         id="path5" />
    </clipPath>
    <clipPath
       clipPathUnits="userSpaceOnUse"
       id="clipPath7">
      <path
         d="M 0,595.276 H 841.89 V 0 H 0 Z"
         transform="translate(-487.78021,-257.05571)"
         id="path7" />
    </clipPath>
    <clipPath
       clipPathUnits="userSpaceOnUse"
       id="clipPath9">
      <path
         d="M 0,595.276 H 841.89 V 0 H 0 Z"
         transform="translate(-564.24241,-270.8786)"
         id="path9" />
    </clipPath>
    <clipPath
       clipPathUnits="userSpaceOnUse"
       id="clipPath11">
      <path
         d="M 0,595.276 H 841.89 V 0 H 0 Z"
         transform="translate(-452.86241,-358.73421)"
         id="path11" />
    </clipPath>
    <clipPath
       clipPathUnits="userSpaceOnUse"
       id="clipPath13">
      <path
         d="M 0,595.276 H 841.89 V 0 H 0 Z"
         transform="translate(-332.96601,-234.3224)"
         id="path13" />
    </clipPath>
    <clipPath
       clipPathUnits="userSpaceOnUse"
       id="clipPath15">
      <path
         d="M 0,595.276 H 841.89 V 0 H 0 Z"
         transform="translate(-372.04531,-234.3224)"
         id="path15" />
    </clipPath>
    <clipPath
       clipPathUnits="userSpaceOnUse"
       id="clipPath17">
      <path
         d="M 0,595.276 H 841.89 V 0 H 0 Z"
         transform="translate(-390.10401,-202.3193)"
         id="path17" />
    </clipPath>
    <clipPath
       clipPathUnits="userSpaceOnUse"
       id="clipPath19">
      <path
         d="M 0,595.276 H 841.89 V 0 H 0 Z"
         transform="translate(-426.27061,-234.3224)"
         id="path19" />
    </clipPath>
    <clipPath
       clipPathUnits="userSpaceOnUse"
       id="clipPath21">
      <path
         d="M 0,595.276 H 841.89 V 0 H 0 Z"
         id="path21" />
    </clipPath>
    <clipPath
       clipPathUnits="userSpaceOnUse"
       id="clipPath23">
      <path
         d="M 0,595.276 H 841.89 V 0 H 0 Z"
         transform="translate(-445.80781,-212.3156)"
         id="path23" />
    </clipPath>
    <clipPath
       clipPathUnits="userSpaceOnUse"
       id="clipPath25">
      <path
         d="M 0,595.276 H 841.89 V 0 H 0 Z"
         transform="translate(-481.74911,-234.3224)"
         id="path25" />
    </clipPath>
    <clipPath
       clipPathUnits="userSpaceOnUse"
       id="clipPath27">
      <path
         d="M 0,595.276 H 841.89 V 0 H 0 Z"
         transform="translate(-491.87271,-220.33901)"
         id="path27" />
    </clipPath>
    <clipPath
       clipPathUnits="userSpaceOnUse"
       id="clipPath29">
      <path
         d="M 0,595.276 H 841.89 V 0 H 0 Z"
         transform="translate(-515.13022,-234.3224)"
         id="path29" />
    </clipPath>
    <clipPath
       clipPathUnits="userSpaceOnUse"
       id="clipPath31">
      <path
         d="M 0,595.276 H 841.89 V 0 H 0 Z"
         id="path31" />
    </clipPath>
    <clipPath
       clipPathUnits="userSpaceOnUse"
       id="clipPath33">
      <path
         d="M 0,595.276 H 841.89 V 0 H 0 Z"
         transform="translate(-558.82091,-223.5209)"
         id="path33" />
    </clipPath>
    <clipPath
       clipPathUnits="userSpaceOnUse"
       id="clipPath35">
      <path
         d="M 0,595.276 H 841.89 V 0 H 0 Z"
         id="path35" />
    </clipPath>
    <clipPath
       clipPathUnits="userSpaceOnUse"
       id="clipPath37">
      <path
         d="M 0,595.276 H 841.89 V 0 H 0 Z"
         transform="translate(-590.99291,-206.44361)"
         id="path37" />
    </clipPath>
    <clipPath
       clipPathUnits="userSpaceOnUse"
       id="clipPath39">
      <path
         d="M 0,595.276 H 841.89 V 0 H 0 Z"
         transform="translate(-610.88752,-212.3156)"
         id="path39" />
    </clipPath>
    <clipPath
       clipPathUnits="userSpaceOnUse"
       id="clipPath41">
      <path
         d="M 0,595.276 H 841.89 V 0 H 0 Z"
         transform="translate(-430.22421,-266.0021)"
         id="path41" />
    </clipPath>
    <clipPath
       clipPathUnits="userSpaceOnUse"
       id="clipPath43">
      <path
         d="M 0,595.276 H 841.89 V 0 H 0 Z"
         transform="translate(-415.66611,-359.54931)"
         id="path43" />
    </clipPath>
  </defs>
  <g
     id="layer-MC0"
     transform="translate(-247.2404,-257.58386)">
    <g
       id="g70"
       transform="translate(-2.6173169,0.65432966)"
       style="fill:#7b2682;fill-opacity:1;stroke:#7b2682;stroke-opacity:1">
      <path
         id="path57"
         clip-path="url(#clipPath13)"
         style="fill:#7b2682;fill-opacity:1;fill-rule:nonzero;stroke:#7b2682;stroke-width:3.02475;stroke-dasharray:none;stroke-opacity:1"
         d="m 0,-34.212891 a 2.2085817,2.2085817 0 0 0 -2.2089844,2.208985 V 0 A 2.2085817,2.2085817 0 0 0 0,2.2089844 H 9.5957031 A 2.2085817,2.2085817 0 0 0 11.759766,0.4375 l 2.46289,-12.160156 2.484375,12.16406225 a 2.2085817,2.2085817 0 0 0 2.164063,1.76757815 h 9.546875 A 2.2085817,2.2085817 0 0 0 30.626953,0 v -32.003906 a 2.2085817,2.2085817 0 0 0 -2.208984,-2.208985 h -5.914063 a 2.2085817,2.2085817 0 0 0 -2.208984,2.208985 v 5.880859 l -1.416016,-6.361328 a 2.2085817,2.2085817 0 0 0 -2.15625,-1.728516 h -5.023437 a 2.2085817,2.2085817 0 0 0 -2.1562502,1.728516 l -1.4160157,6.357422 v -5.876953 a 2.2085817,2.2085817 0 0 0 -2.2089844,-2.208985 z"
         transform="matrix(1.3333333,0,0,-1.3333333,443.95467,481.27147)" />
      <path
         id="path58"
         clip-path="url(#clipPath15)"
         style="fill:#7b2682;fill-opacity:1;fill-rule:nonzero;stroke:#7b2682;stroke-width:3.02475;stroke-dasharray:none;stroke-opacity:1"
         d="m 3.7636719,-34.726562 c -2.85412505,0 -5.9165587,0.444829 -8.3789063,2.398437 -2.4623475,1.953608 -3.9375,5.320416 -3.9375,10.007813 V 0 a 2.0968798,2.0968798 0 0 0 2.0957032,2.0957031 H 0 A 2.0968798,2.0968798 0 0 0 2.0957031,0 v -22.320312 c 0,-1.424927 0.2339367,-2.498233 0.4824219,-2.933594 0.2484852,-0.435362 0.2385073,-0.529297 1.1855469,-0.529297 0.9511433,0 0.9415309,0.09277 1.1894531,0.527344 0.2479222,0.434576 0.4804688,1.509732 0.4804687,2.935547 V 0 A 2.0968798,2.0968798 0 0 0 7.5292969,2.0957031 H 13.986328 A 2.0968798,2.0968798 0 0 0 16.082031,0 v -22.320312 c 0,-4.505605 -1.482125,-7.843799 -3.912109,-9.835938 -2.4299838,-1.992139 -5.4978165,-2.570312 -8.4062501,-2.570312 z"
         transform="matrix(1.3333333,0,0,-1.3333333,496.0604,481.27147)" />
      <path
         id="path59"
         clip-path="url(#clipPath17)"
         style="fill:#7b2682;fill-opacity:1;fill-rule:nonzero;stroke:#7b2682;stroke-width:3.02475;stroke-dasharray:none;stroke-opacity:1"
         d="M 0,-2.2089844 A 2.208582,2.208582 0 0 0 -2.2089844,0 V 32.003906 A 2.208582,2.208582 0 0 0 0,34.212891 H 6.4511719 A 2.208582,2.208582 0 0 0 8.6601563,32.003906 V 7.4980469 H 17.882812 A 2.208582,2.208582 0 0 0 20.091797,5.2890625 V 0 a 2.208582,2.208582 0 0 0 -2.208985,-2.2089844 z"
         transform="matrix(1.3333333,0,0,-1.3333333,520.13867,523.94227)" />
      <path
         id="path60"
         clip-path="url(#clipPath19)"
         style="fill:#7b2682;fill-opacity:1;fill-rule:nonzero;stroke:#7b2682;stroke-width:3.02475;stroke-dasharray:none;stroke-opacity:1"
         d="m -13.447266,-34.212891 a 2.2085817,2.2085817 0 0 0 -2.208984,2.208985 v 24.5058591 h -4.78125 a 2.2085817,2.2085817 0 0 0 -2.208984,2.2089844 V 0 A 2.2085817,2.2085817 0 0 0 -20.4375,2.2089844 H 0 A 2.2085817,2.2085817 0 0 0 2.2089844,0 V -5.2890625 A 2.2085817,2.2085817 0 0 0 0,-7.4980469 H -4.78125 V -32.003906 a 2.2085817,2.2085817 0 0 0 -2.2089844,-2.208985 z"
         transform="matrix(1.3333333,0,0,-1.3333333,568.3608,481.27147)" />
      <path
         id="path61"
         clip-path="url(#clipPath21)"
         style="fill:#7b2682;fill-opacity:1;fill-rule:nonzero;stroke:#7b2682;stroke-width:3.02475;stroke-dasharray:none;stroke-opacity:1"
         d="m 429.35937,200.33984 a 1.9784607,1.9784607 0 0 0 -1.97851,1.97852 v 32.00391 a 1.9784607,1.9784607 0 0 0 1.97851,1.97851 h 6.45313 a 1.9784607,1.9784607 0 0 0 1.97852,-1.97851 v -32.00391 a 1.9784607,1.9784607 0 0 0 -1.97852,-1.97852 z"
         transform="matrix(1.3333333,0,0,-1.3333333,0,793.70133)" />
      <path
         id="path62"
         clip-path="url(#clipPath23)"
         style="fill:#7b2682;fill-opacity:1;fill-rule:nonzero;stroke:#7b2682;stroke-width:3.02475;stroke-dasharray:none;stroke-opacity:1"
         d="m 3.7207031,-12.146484 c -3.89068635,0 -6.8908501,0.920604 -8.8945312,2.8749996 -2.0036811,1.9543953 -2.8066407,4.7653176 -2.8066406,7.9707032 V 0 a 1.5244494,1.5244494 0 0 0 1.5234375,1.5234375 H 0 A 1.5244494,1.5244494 0 0 0 1.5234375,0 v -0.94140625 c 0,-1.35776255 0.2333071,-2.25398745 0.5507813,-2.67968755 0.3174741,-0.4257 0.769232,-0.7265624 2.1855468,-0.7265624 0.6634577,0 1.2490221,0.2115009 1.6425781,0.5683593 0.3935561,0.3568585 0.6855469,0.8613367 0.6855469,1.8496094 0,1.19965393 -0.174546,1.60148841 -0.7734375,2.14453125 C 5.2155616,0.75788659 3.9459744,1.3802417 1.8730469,2.0996094 -1.1032833,3.1235543 -3.4437071,4.2866282 -5.09375,6.0917969 c -1.6508736,1.8060774 -2.4375,4.2124671 -2.4375,7.1308591 0,3.425744 1.0949204,6.269696 3.1601563,8.166016 2.0652358,1.89632 4.95822118,2.771484 8.2734375,2.771484 3.0871164,0 5.9131072,-0.649693 8.0449222,-2.328125 2.131814,-1.678431 3.380858,-4.388486 3.380859,-7.802734 V 13.132813 A 1.5244494,1.5244494 0 0 0 13.804688,11.609375 H 7.6210937 a 1.5244494,1.5244494 0 0 0 -1.5234375,1.523438 c 0,1.326719 -0.2587796,2.21039 -0.5507812,2.628906 -0.2920016,0.418516 -0.5520902,0.597656 -1.4257813,0.597656 -1.1363081,0 -1.4933208,-0.272933 -1.7402343,-0.582031 C 2.1339458,15.468245 1.96875,14.899003 1.96875,14.162109 c 0,-0.833509 0.1030393,-1.234681 0.359375,-1.599609 0.2563357,-0.364928 0.8069977,-0.822624 2.0332031,-1.345703 a 1.5244494,1.5244494 0 0 0 0.00781,-0.0039 L 9.34375,9.0625 a 1.5244494,1.5244494 0 0 0 0.00391,0 c 2.576142,-1.1215437 4.385967,-2.4250616 5.521481,-4.1132813 1.135513,-1.6882196 1.492187,-3.6444268 1.492187,-5.75781245 0,-3.69331415 -1.194182,-6.68357015 -3.476562,-8.60937505 -2.282381,-1.9258052 -5.447077,-2.7285152 -9.1640629,-2.7285152 z"
         transform="matrix(1.3333333,0,0,-1.3333333,594.4104,510.61387)" />
      <path
         id="path63"
         clip-path="url(#clipPath25)"
         style="fill:#7b2682;fill-opacity:1;fill-rule:nonzero;stroke:#7b2682;stroke-width:3.02475;stroke-dasharray:none;stroke-opacity:1"
         d="m -17.882812,-34.265625 a 2.2624576,2.2624576 0 0 0 -2.261719,2.261719 V 0 a 2.2624576,2.2624576 0 0 0 2.261719,2.2617188 H 0 A 2.2624576,2.2624576 0 0 0 2.2617188,0 V -5.2890625 A 2.2624576,2.2624576 0 0 0 0,-7.5507812 h -9.1699219 v -3.0058598 h 8.4980469 a 2.2624576,2.2624576 0 0 0 2.2617187,-2.261718 v -5.289063 a 2.2624576,2.2624576 0 0 0 -2.2617187,-2.261719 h -8.4980469 v -4.083984 h 9.61914065 a 2.2624576,2.2624576 0 0 0 2.26171875,-2.261719 v -5.289062 a 2.2624576,2.2624576 0 0 0 -2.26171875,-2.261719 z"
         transform="matrix(1.3333333,0,0,-1.3333333,642.33213,481.27147)" />
      <path
         id="path64"
         clip-path="url(#clipPath27)"
         style="fill:#7b2682;fill-opacity:1;fill-rule:nonzero;stroke:#7b2682;stroke-width:3.02475;stroke-dasharray:none;stroke-opacity:1"
         d="m -6.4511719,-20.486328 a 2.4662193,2.4662193 0 0 0 -2.4667969,2.466797 v 32.001953 a 2.4662193,2.4662193 0 0 0 2.4667969,2.466797 H 5.46875 c 3.0775132,0 5.89756,-0.832642 7.931641,-2.742188 2.03408,-1.909545 3.052734,-4.7518098 3.052734,-7.9707029 0,-2.4583614 -0.481881,-4.7310636 -1.708984,-6.60546873 -0.27668,-0.42262977 -0.718983,-0.70265177 -1.070313,-1.06640627 0.56148,-0.524605 1.059154,-1.1085388 1.394531,-1.8105469 1.071333,-2.2424997 1.156148,-4.7731208 1.201172,-8.2324222 v -0.0039 c 0.02406,-1.641906 0.104689,-2.832334 0.228516,-3.408203 0.123968,-0.576526 0.05914,-0.265266 -0.125,-0.169922 A 2.4662193,2.4662193 0 0 0 17.705078,-17.75 v -0.269531 a 2.4662193,2.4662193 0 0 0 -2.466797,-2.466797 H 8.2480469 a 2.4662193,2.4662193 0 0 0 -2.0195313,1.052734 c -1.1302962,1.615224 -1.2036729,3.314569 -1.2519531,4.689453 a 2.4662193,2.4662193 0 0 0 0,0.01563 L 4.8007812,-8.609375 C 4.767168,-7.7018176 4.5516368,-7.3059433 4.4550781,-7.1972656 4.3585195,-7.088588 4.2699268,-6.9511719 3.4511719,-6.9511719 H 2.4667969 V -18.019531 A 2.4662193,2.4662193 0 0 0 0,-20.486328 Z M 2.4667969,2.4667969 h 0.2246094 c 1.1868789,0 1.6925738,0.2497698 1.8984374,0.4414062 0.2058637,0.1916365 0.4765626,0.578716 0.4765625,1.8867188 10e-8,1.043247 -0.226323,1.3885939 -0.40625,1.5644531 -0.1799269,0.1758592 -0.5707216,0.40625 -1.6093749,0.40625 H 2.4667969 Z"
         transform="matrix(1.3333333,0,0,-1.3333333,655.83027,499.916)" />
      <path
         id="path65"
         clip-path="url(#clipPath29)"
         style="fill:#7b2682;fill-opacity:1;fill-rule:nonzero;stroke:#7b2682;stroke-width:3.02475;stroke-dasharray:none;stroke-opacity:1"
         d="m 0.4453125,-34.470703 a 2.4662193,2.4662193 0 0 0 -2.4042969,1.914062 L -9.3105469,-0.55273437 A 2.4662193,2.4662193 0 0 0 -6.90625,2.4667969 H 0 A 2.4662193,2.4662193 0 0 0 2.421875,0.46289063 L 4.6484375,-11.1875 6.9902344,0.484375 a 2.4662193,2.4662193 0 0 0 2.4179687,1.9824219 h 6.6835939 a 2.4662193,2.4662193 0 0 0 2.404297,-3.01953127 L 11.142578,-32.556641 a 2.4662193,2.4662193 0 0 0 -2.4042967,-1.914062 z"
         transform="matrix(1.3333333,0,0,-1.3333333,686.84027,481.27147)" />
      <path
         id="path66"
         clip-path="url(#clipPath31)"
         style="fill:#7b2682;fill-opacity:1;fill-rule:nonzero;stroke:#7b2682;stroke-width:3.02475;stroke-dasharray:none;stroke-opacity:1"
         d="m 533.9043,199.86523 a 2.4539795,2.4539795 0 0 0 -2.45313,2.45313 v 32.00391 a 2.4539795,2.4539795 0 0 0 2.45313,2.45312 h 6.45117 a 2.4539795,2.4539795 0 0 0 2.45312,-2.45312 v -32.00391 a 2.4539795,2.4539795 0 0 0 -2.45312,-2.45313 z"
         transform="matrix(1.3333333,0,0,-1.3333333,0,793.70133)" />
      <path
         id="path67"
         clip-path="url(#clipPath33)"
         style="fill:#7b2682;fill-opacity:1;fill-rule:nonzero;stroke:#7b2682;stroke-width:3.02475;stroke-dasharray:none;stroke-opacity:1"
         d="m -3.4511719,-23.878906 c -5.344284,0 -9.0651211,2.216161 -10.8984371,5.779297 -1.81724,3.531886 -2.044922,7.956286 -2.044922,12.9003903 0,4.94312893 0.227836,9.3679169 2.044922,12.9003906 1.833157,3.5637201 5.5538607,5.7812501 10.8984371,5.7812501 5.1336733,0 8.5206763,-2.113568 10.1914063,-4.9882814 C 8.3952482,5.6464683 8.5078126,2.4208803 8.5078125,0 8.507597,-0.53667017 8.2857332,-1.0697356 7.90625,-1.4492187 7.5267668,-1.8287019 6.9937014,-2.0505658 6.4570312,-2.0507813 H 0 c -0.53667015,2.155e-4 -1.0697356,0.2220794 -1.4492187,0.6015626 C -1.8287019,-1.0697356 -2.0505658,-0.53667015 -2.0507813,0 c 0,2.1823156 -0.3223884,3.6283026 -0.5800781,4.0957031 -0.1683075,0.3052782 -0.237068,0.379113 -0.3378906,0.4296875 -0.1008226,0.050575 -0.3545745,0.1015625 -0.8847656,0.1015625 -0.5016203,0 -0.523469,-0.031609 -0.6875,-0.1699219 -0.1183887,-0.099827 -0.3675238,-0.4084258 -0.5957031,-1.1503906 -0.4523548,-1.4709094 -0.6992188,-4.4879891 -0.6992188,-8.9550781 0,-4.7408575 0.4215375,-7.4941085 0.8632813,-8.5585935 0.231317,-0.557412 0.3399283,-0.619544 0.4609375,-0.69336 0.094227,-0.05748 0.2652092,-0.125 0.7460937,-0.125 0.4484611,0 0.6750387,0.02395 0.7675781,0.0625 0.092539,0.03856 0.1777002,0.103066 0.3789063,0.429688 0.3264979,0.530011 0.8378906,2.290968 0.8378906,5.5664061 2.154e-4,0.5366702 0.2220793,1.0697356 0.6015625,1.4492188 0.37948315,0.3794831 0.91254856,0.601347 1.44921875,0.6015625 H 6.7265625 c 0.5366702,-2.155e-4 1.0697356,-0.2220794 1.4492188,-0.6015625 0.3794831,-0.3794832 0.601347,-0.9125486 0.6015625,-1.4492188 0,-3.6151451 -0.3918675,-7.2059201 -2.2285157,-10.1152341 -1.8509989,-2.932046 -5.2691037,-4.796875 -10,-4.796875 z"
         transform="matrix(1.3333333,0,0,-1.3333333,745.09453,495.67347)" />
      <path
         id="path68"
         clip-path="url(#clipPath35)"
         style="fill:#7b2682;fill-opacity:1;fill-rule:nonzero;stroke:#7b2682;stroke-width:3.02475;stroke-dasharray:none;stroke-opacity:1"
         d="m 569.52734,199.11914 a 3.1996,3.1996 0 0 0 -3.19922,3.19922 v 32.00391 a 3.1996,3.1996 0 0 0 3.19922,3.19921 h 6.45118 a 3.1996,3.1996 0 0 0 3.19921,-3.19921 v -32.00391 a 3.1996,3.1996 0 0 0 -3.19921,-3.19922 z"
         transform="matrix(1.3333333,0,0,-1.3333333,0,793.70133)" />
      <path
         id="path69"
         clip-path="url(#clipPath37)"
         style="fill:#7b2682;fill-opacity:1;fill-rule:nonzero;stroke:#7b2682;stroke-width:3.02475;stroke-dasharray:none;stroke-opacity:1"
         d="m 0,-7.4628906 c -5.483455,0 -9.5652061,2.4042634 -11.486328,6.1386719 -1.921122,3.7344084 -2.117188,8.226819 -2.117188,13.2031247 0,4.97533 0.196038,9.467012 2.117188,13.201172 C -9.5651781,28.814239 -5.4834593,31.21875 0,31.21875 c 5.4856265,0 9.5677374,-2.404148 11.488281,-6.138672 1.920544,-3.734524 2.115235,-8.226307 2.115235,-13.201172 0,-4.9758414 -0.194719,-9.4683524 -2.115235,-13.2031247 C 9.5677655,-5.0589911 5.4856222,-7.4628906 0,-7.4628906 Z M 0,2.7109375 c 0.56540725,0 0.65079281,0.084095 0.6875,0.1113281 0.0367072,0.027233 0.18970847,0.1431894 0.3925781,0.75 0.4057393,1.2136213 0.6484375,4.0699102 0.6484375,8.3066404 0,4.213885 -0.242959,7.069342 -0.6503906,8.291016 C 0.87440922,20.780759 0.71840254,20.902713 0.6796875,20.931641 0.64097246,20.960568 0.56053908,21.042969 0,21.042969 c -0.55912667,0 -0.63948456,-0.08272 -0.67773437,-0.111328 -0.0382498,-0.02861 -0.19284335,-0.150646 -0.39648433,-0.761719 -0.4072821,-1.222146 -0.6503907,-4.077141 -0.6503907,-8.291016 0,-4.2367203 0.2428456,-7.0925463 0.6484375,-8.3066404 0.20279599,-0.607047 0.35634111,-0.7230906 0.39257815,-0.75 C -0.64735671,2.7953563 -0.56399994,2.7109375 0,2.7109375 Z"
         transform="matrix(1.3333333,0,0,-1.3333333,787.99053,518.4432)" />
      <path
         id="path70"
         clip-path="url(#clipPath39)"
         style="fill:#7b2682;fill-opacity:1;fill-rule:nonzero;stroke:#7b2682;stroke-width:3.02475;stroke-dasharray:none;stroke-opacity:1"
         d="m 3.7207031,-13.453125 c -4.09339304,0 -7.4817721,0.980317 -9.8046875,3.246094 -2.3229154,2.2657769 -3.203125,5.4898509 -3.203125,8.9062498 V 0 a 2.8300426,2.8300426 0 0 0 2.8300782,2.8300781 H -2.96875 c -1.1554785,0.6668224 -2.2084648,1.4187559 -3.0878906,2.3808594 -1.8844955,2.0616628 -2.78125,4.8775965 -2.78125,8.0117185 0,3.691877 1.2188275,6.955243 3.5839844,9.126953 2.3651568,2.171711 5.61389296,3.117188 9.15625,3.117188 3.2743474,0 6.4019472,-0.677241 8.8535152,-2.607422 2.451569,-1.930181 3.878906,-5.120576 3.878907,-8.830078 V 13.132813 A 2.8300426,2.8300426 0 0 0 13.804688,10.302734 H 9.765625 l 0.095703,-0.04101 a 2.8300426,2.8300426 0 0 0 0.00586,-0.0039 c 2.709017,-1.179402 4.763599,-2.6170135 6.083984,-4.5800896 1.320385,-1.9630761 1.716797,-4.2325849 1.716797,-6.48632815 0,-3.95865005 -1.336185,-7.40921345 -3.941406,-9.60742225 -2.605222,-2.198208 -6.0991856,-3.037109 -10.0058599,-3.037109 z m 0.5390625,10.4121094 c 0.3867926,0 0.648449,0.1222658 0.765625,0.2285156 0.1171761,0.1062498 0.2558594,0.1987692 0.2558594,0.8828125 0,0.97882531 -0.00267,0.8702282 -0.3417969,1.17773438 -0.245304,0.22242854 -1.415374,0.71088121 -2.5273437,1.16992187 A 2.8300426,2.8300426 0 0 0 2.8300781,0 v -0.94140625 c 0,-1.23423235 0.2489646,-1.84400445 0.2910157,-1.90039065 0.042051,-0.056386 -0.031687,-0.1992187 1.1386718,-0.1992187 z M 5.9882812,11.935547 a 2.8300426,2.8300426 0 0 0 -1.1972656,1.197266 c 0,1.177031 -0.259602,1.801396 -0.3164062,1.882812 -0.056804,0.08142 0.2120222,0.03711 -0.3535157,0.03711 -0.8620843,0 -0.7355388,-0.11086 -0.7187499,-0.08984 0.016789,0.02102 -0.1269532,-0.239977 -0.1269532,-0.800782 0,-0.703767 0.063348,-0.7674 0.1210938,-0.849609 0.057746,-0.08221 0.369654,-0.422342 1.4765625,-0.894531 a 2.8300426,2.8300426 0 0 0 0.013672,-0.0059 z"
         transform="matrix(1.3333333,0,0,-1.3333333,814.51667,510.61387)" />
    </g>
    <path
       id="path2"
       clip-path="url(#clipPath3)"
       style="fill:#a3d71d;fill-opacity:1;fill-rule:nonzero;stroke:#7b2682;stroke-width:6;stroke-dasharray:none;stroke-opacity:1"
       d="m 52.285156,-112.9082 c -12.017087,0 -20.116373,3.89824 -25.341797,13.164059 a 1.0129315,1.0129315 0 0 0 -0.002,0.0059 c -7.228007,13.020497 -5.749812,29.204247 -6.589844,49.083984 a 1.0129315,1.0129315 0 0 0 0,0.0039 c -0.41681,10.742793 -2.050295,18.120041 -5.683593,22.712891 -3.633299,4.59285 -9.3403151,6.679688 -18.6015628,6.679688 -1.4044817,0 -2.8203197,-0.06758 -4.3261718,-0.222657 v -53.302734 c 0,-4.938649 0.8893961,-8.052631 2.8535156,-9.955078 1.9641195,-1.902447 5.24360789,-2.804688 10.4707031,-2.804688 H 6.1875 a 1.0129315,1.0129315 0 0 0 1.0136719,-1.013672 V -107.39063 A 1.0129315,1.0129315 0 0 0 6.1875,-108.4043 h -63.828125 a 1.0129315,1.0129315 0 0 0 -1.013672,1.01367 v 18.833989 a 1.0129315,1.0129315 0 0 0 1.013672,1.013672 c 5.230671,0 8.513405,0.902193 10.478516,2.804688 1.96511,1.902494 2.853515,5.016456 2.853515,9.955078 V 50.033203 c 0,4.938622 -0.888405,8.052584 -2.853515,9.955078 -1.965111,1.902495 -5.247845,2.804688 -10.478516,2.804688 a 1.0129315,1.0129315 0 0 0 -1.013672,1.013672 v 18.839843 a 1.0129315,1.0129315 0 0 0 1.013672,1.013672 H 2.8066406 c 20.0932954,0 35.1069164,-3.881298 45.1406254,-12.21875 10.033708,-8.337451 14.914062,-21.077218 14.914062,-38.271484 0,-13.796708 -3.350271,-25.0671933 -9.664062,-33.3652345 -5.599525,-7.3592992 -13.634285,-12.1819725 -23.441407,-14.5136715 8.809339,-2.54857 14.812276,-6.943386 18.56836,-13.726563 4.280371,-7.729996 5.948377,-18.258102 6.93164,-32.214844 v -0.0039 c 0.710397,-9.722932 0.936412,-17.11859 1.855469,-21.917969 0.459598,-2.400053 1.101501,-4.123079 1.927734,-5.160156 0.826234,-1.037077 1.77389,-1.501953 3.369141,-1.501953 1.604515,0 3.020813,0.813912 4.144531,2.529297 1.123719,1.715385 1.875,4.340263 1.875,7.708984 v 13.210938 a 1.0129315,1.0129315 0 0 0 1.013672,1.013672 h 11.238281 a 1.0129315,1.0129315 0 0 0 1.013672,-1.013672 v -8.15625 c 0,-13.317601 -2.028209,-23.020938 -6.804687,-29.48828 -4.776478,-6.46734 -12.288313,-9.47851 -22.603516,-9.47851 z M -8.2597656,1.0136719 H 0 c 10.390976,0 17.347185,2.2609913 21.771484,7.1816406 4.4243,4.9206495 6.455078,12.7229375 6.455078,24.1289065 0,12.404711 -1.973309,19.977486 -6.255859,24.421875 -4.28255,4.444388 -11.115893,6.046875 -21.41406238,6.046875 H -8.2597656 Z"
       transform="matrix(1.3333333,0,0,-1.3333333,329.44613,386.10053)" />
    <path
       id="path4"
       clip-path="url(#clipPath5)"
       style="fill:#a3d71d;fill-opacity:1;fill-rule:nonzero;stroke:#7b2682;stroke-width:6;stroke-dasharray:none;stroke-opacity:1"
       d="m -8.9550781,-70.029297 c -13.9412669,0 -24.3002159,5.153104 -30.2382809,15.265625 -5.938065,10.112521 -7.863282,24.396381 -7.863282,43.375 0,19.2541072 2.539101,33.972313 8.652344,44.349609 6.113243,10.377297 16.260199,15.923829 29.0390626,15.923829 12.6799891,0 23.2325504,-7.028215 29.1933594,-19.388672 l 0.002,-0.0039 C 24.16891,20.588401 24.269531,10.821975 24.269531,-0.40234375 V -3.6582031 -12.607422 A 3.7369812,3.7369812 0 0 0 20.533203,-16.34375 H -16.59375 v -2.167969 c 0,-11.227471 0.801195,-19.515339 2.5625,-24.335937 0.880653,-2.410299 1.925128,-3.880279 3.035156,-4.753906 1.1100289,-0.873628 2.3802505,-1.335938 4.4785159,-1.335938 3.3799777,0 4.7822932,0.992595 6.45898435,5.099609 C 1.6180974,-39.730876 2.5625,-32.530882 2.5625,-22.576172 a 3.7369812,3.7369812 0 0 0 3.7363281,3.736328 H 20.335937 a 3.7369812,3.7369812 0 0 0 3.736329,-3.736328 c 0,-1.320226 0.197265,-2.902032 0.197265,-4.671875 0,-13.49314 -2.527694,-24.082949 -8.179687,-31.541015 -5.651993,-7.458067 -14.45191,-11.240235 -25.0449221,-11.240235 z M -16.59375,3.7363281 h 12.8574219 v 8.8730469 c 0,6.418659 -0.625379,11.032838 -1.6933594,13.363281 -1.0679804,2.330443 -1.6973426,2.824219 -4.7421875,2.824219 -2.556399,0 -3.29826,-0.467035 -4.462891,-2.873047 -1.16463,-2.406012 -1.958984,-7.065287 -1.958984,-13.724609 z"
       transform="matrix(1.3333333,0,0,-1.3333333,488.7592,382.63467)" />
    <path
       id="path6"
       clip-path="url(#clipPath7)"
       style="fill:#a3d71d;fill-opacity:1;fill-rule:nonzero;stroke:#7b2682;stroke-width:6;stroke-dasharray:none;stroke-opacity:1"
       d="m -40.0625,-14.162109 a 1.9631841,1.9631841 0 0 0 -1.962891,1.96289 V 0 a 1.9631841,1.9631841 0 0 0 1.962891,1.9628906 c 4.041924,0 5.793951,0.5170469 6.404297,1.1386719 0.610346,0.621625 0.988281,2.2716263 0.988281,5.84375 V 72.1875 c 0,1.786062 -0.07366,3.154622 -0.253906,4.083984 -0.180251,0.929363 -0.416673,1.34817 -0.708984,1.634766 -0.584624,0.573191 -2.372284,1.066406 -6.429688,1.066406 a 1.9631841,1.9631841 0 0 0 -1.962891,1.962891 v 12.402344 a 1.9631841,1.9631841 0 0 0 1.962891,1.96289 h 30.5078125 a 1.9631841,1.9631841 0 0 0 1.9628906,-1.96289 v -6.904297 c 6.1607094,7.74166 13.3195486,11.921875 22.0292969,11.921875 8.261741,0 14.434876,-2.962482 18.109375,-8.824219 3.674499,-5.861737 5.003906,-14.225279 5.003906,-25.275391 V 8.953125 c 0,-3.5765603 0.373712,-5.2133255 1,-5.8398437 C 39.17707,2.486763 40.99612,1.9628906 45.142578,1.9628906 A 1.9631841,1.9631841 0 0 0 47.105469,0 v -12.199219 a 1.9631841,1.9631841 0 0 0 -1.962891,-1.96289 H 5.078125 a 1.9631841,1.9631841 0 0 0 -1.9628906,1.96289 V 0 A 1.9631841,1.9631841 0 0 0 5.078125,1.9628906 c 3.6031899,0 5.052534,0.4991719 5.623047,1.1425782 0.570512,0.6434062 0.955078,2.3775284 0.955078,5.8476562 v 58.152344 c 0,3.624917 -0.700929,6.112581 -1.7382812,7.544922 -1.0373519,1.43234 -2.3539061,2.083984 -4.6406251,2.083984 -4.2335958,0 -6.8036437,-1.488323 -8.7792968,-5 -1.9756531,-3.511677 -3.0722656,-9.272427 -3.0722656,-17.230469 V 8.953125 c 0,-3.4896748 0.3463262,-5.1761067 0.8769531,-5.7773437 0.5306268,-0.6012371 2.015766,-1.1188245 5.74609372,-1.2128907 A 1.9631841,1.9631841 0 0 0 1.9628906,0 V -12.199219 A 1.9631841,1.9631841 0 0 0 0,-14.162109 Z"
       transform="matrix(1.3333333,0,0,-1.3333333,650.3736,450.9604)" />
    <path
       id="path8"
       clip-path="url(#clipPath9)"
       style="fill:#a3d71d;fill-opacity:1;fill-rule:nonzero;stroke:#7b2682;stroke-width:6;stroke-dasharray:none;stroke-opacity:1"
       d="m 1.4257812,-31.855469 c -7.7757799,0 -14.4715792,2.879681 -19.0273432,8.125 -4.555765,5.245319 -6.939454,12.66289 -6.939454,21.5000002 0,9.6833492 2.894921,17.7173798 8.837891,23.1894528 a 2.7854703,2.7854703 0 0 0 0.002,0.002 c 7.9931422,7.349015 16.7160443,10.341315 22.873047,13.804688 5.228035,2.957882 8.882347,5.737587 11.148437,8.640625 2.267092,2.90432 3.300782,5.908865 3.300782,10.076172 0,4.867241 -1.351886,8.494427 -3.5625,10.908203 -2.210614,2.413776 -5.356838,3.796875 -9.7167971,3.796875 -4.3615174,0 -7.60696235,-1.426819 -9.8710938,-3.876953 3.2713269,-0.229656 6.2197473,-1.411524 8.2285156,-3.699219 2.2377738,-2.548498 3.2089844,-6.079643 3.2089844,-10.179687 0,-4.00037 -1.4648922,-7.627237 -4.1367187,-10.132813 -2.6718265,-2.505576 -6.42434157,-3.828125 -10.6523438,-3.828125 -4.9736546,0 -9.3824116,1.690936 -12.4179686,4.916016 -3.035557,3.22508 -4.591797,7.807214 -4.591797,13.123047 0,17.149733 14.231368,30.845703 35.310547,30.845703 11.260671,0 20.147265,-2.989887 26.078125,-9.291016 5.93086,-6.301129 8.638672,-15.540781 8.638672,-27.255859 V -9.5527344 -10.976563 c 0,-1.397541 0.138709,-2.107059 0.169922,-2.294921 0.05237,-0.0048 -0.0027,-7.64e-4 0.07617,-0.002 0.03201,0.0371 0.227967,0.272992 0.425782,0.933594 0.416195,1.389887 0.673828,4.2017176 0.673828,8.0761721 0,1.8392507 -0.210938,3.90347174 -0.210938,6.5058594 a 2.7854703,2.7854703 0 0 0 2.785157,2.7851562 h 7.929687 A 2.7854703,2.7854703 0 0 0 62.77153,2.2421415 v -6.9179687 c 0,-8.6198718 -1.240327,-15.2724948 -4.597656,-20.0507808 -3.357329,-4.778287 -8.892019,-7.128907 -15.671875,-7.128907 -5.210429,0 -9.759234,1.250002 -13.328125,3.96875 -2.33766,1.780808 -4.145568,4.192383 -5.550781,7.039063 -5.78149,-7.176032 -12.956137,-11.007813 -22.1972658,-11.007813 z m 9.3535158,23.4589846 c 3.718332,0 5.580012,1.1039051 7.21875,4.1152344 1.638738,3.0113293 2.609375,8.2716885 2.609375,15.669922 V 22.677734 C 16.40303,18.854286 12.357766,15.57602 9.3261719,12.736328 5.1328453,8.8084419 2.7851563,5.5373311 2.7851563,0 c 0,-4.676586 3.4419033,-8.3964844 7.9941407,-8.3964844 z"
       transform="matrix(1.3333333,0,0,-1.3333333,752.3232,432.52987)" />
    <path
       id="path10"
       clip-path="url(#clipPath11)"
       style="fill:#fdd804;fill-opacity:1;fill-rule:nonzero;stroke:#7b2682;stroke-width:6;stroke-dasharray:none;stroke-opacity:1"
       d="m 0.6015625,-4.5136719 a 4.554637,4.554637 0 0 0 -4.6933594,2.515625 C -7.5749931,5.1376808 -12.165204,11.794657 -18.052734,16.646484 a 4.554637,4.554637 0 0 0 5,7.552735 c 0,0 6.910673,-3.393411 13.240234,-3.392578 3.1647805,4.16e-4 5.8755362,0.721146 8.046875,2.71289 2.171339,1.991744 4.190762,5.610344 4.806641,12.675781 a 4.554637,4.554637 0 0 0 9.035156,0.320313 c 0,0 0.554197,-3.267189 2.423828,-6.537109 1.843394,-3.224032 4.31881,-5.902064 9.169922,-6.171875 4.838033,0.269702 7.309954,2.947151 9.152344,6.171875 1.868676,3.270733 2.423828,6.539062 2.423828,6.539062 a 4.554637,4.554637 0 0 0 9.035156,-0.322266 c 0.614965,-7.065317 2.633483,-10.684158 4.804687,-12.675781 2.171205,-1.991623 4.881506,-2.712474 8.046875,-2.71289 6.33074,-8.33e-4 13.244141,3.392578 13.244141,3.392578 A 4.554637,4.554637 0 0 0 85.375,16.644531 C 79.483902,11.791983 74.89113,5.1368916 71.412109,-1.9960937 a 4.554637,4.554637 0 0 0 -4.695312,-2.5175782 c -10.223403,1.3616173 -21.364531,2.1328125 -33.06836,2.1328125 -11.678407,0 -22.819214,-0.7711505 -33.0468745,-2.1328125 z"
       transform="matrix(1.3333333,0,0,-1.3333333,603.81653,315.38907)" />
    <g
       id="g57"
       transform="translate(-1.6358231,0.98149385)"
       style="stroke-width:3;stroke-dasharray:none">
      <path
         id="path12"
         d="m 0,0 h 9.595 l 4.572,-22.589 h 0.088 L 18.871,0 h 9.546 V -32.003 H 22.504 V -6.454 H 22.411 L 16.722,-32.003 H 11.7 L 6.007,-6.454 H 5.918 V -32.003 H 0 Z"
         style="fill:#fdd804;fill-opacity:1;fill-rule:nonzero;stroke:#7b2682;stroke-width:2.25;stroke-dasharray:none;stroke-opacity:1"
         transform="matrix(1.3333333,0,0,-1.3333333,443.95467,481.27147)"
         clip-path="url(#clipPath13)" />
      <path
         id="path14"
         d="m 0,0 v -22.32 c 0,-3.185 0.764,-5.559 3.764,-5.559 3.006,0 3.765,2.374 3.765,5.559 V 0 h 6.457 v -22.32 c 0,-8.158 -4.979,-10.31 -10.222,-10.31 -5.242,0 -10.221,1.748 -10.221,10.31 V 0 Z"
         style="fill:#fdd804;fill-opacity:1;fill-rule:nonzero;stroke:#7b2682;stroke-width:2.25;stroke-dasharray:none;stroke-opacity:1"
         transform="matrix(1.3333333,0,0,-1.3333333,496.0604,481.27147)"
         clip-path="url(#clipPath15)" />
      <path
         id="path16"
         d="M 0,0 V 32.003 H 6.452 V 5.289 H 17.883 V 0 Z"
         style="fill:#fdd804;fill-opacity:1;fill-rule:nonzero;stroke:#7b2682;stroke-width:2.25;stroke-dasharray:none;stroke-opacity:1"
         transform="matrix(1.3333333,0,0,-1.3333333,520.13867,523.94227)"
         clip-path="url(#clipPath17)" />
      <path
         id="path18"
         d="m 0,0 v -5.289 h -6.991 v -26.714 h -6.456 v 26.714 h -6.991 V 0 Z"
         style="fill:#fdd804;fill-opacity:1;fill-rule:nonzero;stroke:#7b2682;stroke-width:2.25;stroke-dasharray:none;stroke-opacity:1"
         transform="matrix(1.3333333,0,0,-1.3333333,568.3608,481.27147)"
         clip-path="url(#clipPath19)" />
      <path
         id="path20"
         d="m 429.36,234.322 h 6.452 v -32.003 h -6.452 z"
         style="fill:#fdd804;fill-opacity:1;fill-rule:nonzero;stroke:#7b2682;stroke-width:2.25;stroke-dasharray:none;stroke-opacity:1"
         transform="matrix(1.3333333,0,0,-1.3333333,0,793.70133)"
         clip-path="url(#clipPath21)" />
      <path
         id="path22"
         d="m 0,0 v -0.942 c 0,-3.004 0.852,-4.93 4.259,-4.93 1.973,0 3.853,1.256 3.853,3.943 0,2.915 -1.479,3.99 -5.738,5.468 -5.737,1.973 -8.381,4.35 -8.381,9.683 0,6.23 3.809,9.414 9.909,9.414 5.737,0 9.903,-2.467 9.903,-8.606 V 13.132 H 7.622 c 0,3.003 -1.033,4.751 -3.5,4.751 -2.913,0 -3.677,-1.836 -3.677,-3.721 0,-1.97 0.588,-3.182 3.319,-4.347 L 8.738,7.664 c 4.842,-2.108 6.1,-4.573 6.1,-8.472 0,-6.767 -4.127,-9.815 -11.118,-9.815 -7.308,0 -10.177,3.405 -10.177,9.323 V 0 Z"
         style="fill:#fdd804;fill-opacity:1;fill-rule:nonzero;stroke:#7b2682;stroke-width:2.25;stroke-dasharray:none;stroke-opacity:1"
         transform="matrix(1.3333333,0,0,-1.3333333,594.4104,510.61387)"
         clip-path="url(#clipPath23)" />
      <path
         id="path24"
         d="m 0,0 v -5.289 h -11.431 v -7.529 h 10.76 v -5.29 h -10.76 v -8.606 H 0.45 v -5.289 H -17.883 V 0 Z"
         style="fill:#fdd804;fill-opacity:1;fill-rule:nonzero;stroke:#7b2682;stroke-width:2.25;stroke-dasharray:none;stroke-opacity:1"
         transform="matrix(1.3333333,0,0,-1.3333333,642.33213,481.27147)"
         clip-path="url(#clipPath25)" />
      <path
         id="path26"
         d="m 0,0 h 2.692 c 3.089,0 4.842,1.344 4.842,4.795 0,2.959 -1.572,4.438 -4.484,4.438 H 0 Z m -6.452,13.983 h 11.92 c 5.292,0 8.518,-2.778 8.518,-8.246 0,-4.259 -1.704,-7.127 -5.336,-7.888 v -0.091 c 4.396,-0.583 5.067,-3.003 5.155,-9.771 0.049,-3.363 0.225,-5.111 1.434,-5.737 v -0.27 h -6.99 c -0.627,0.896 -0.764,2.108 -0.808,3.361 L 7.265,-8.518 C 7.172,-6.007 6.051,-4.484 3.451,-4.484 H 0 V -18.02 h -6.452 z"
         style="fill:#fdd804;fill-opacity:1;fill-rule:nonzero;stroke:#7b2682;stroke-width:2.25;stroke-dasharray:none;stroke-opacity:1"
         transform="matrix(1.3333333,0,0,-1.3333333,655.83027,499.916)"
         clip-path="url(#clipPath27)" />
      <path
         id="path28"
         d="M 0,0 4.523,-23.666 H 4.66 L 9.409,0 h 6.682 L 8.738,-32.003 H 0.445 L -6.907,0 Z"
         style="fill:#fdd804;fill-opacity:1;fill-rule:nonzero;stroke:#7b2682;stroke-width:2.25;stroke-dasharray:none;stroke-opacity:1"
         transform="matrix(1.3333333,0,0,-1.3333333,686.84027,481.27147)"
         clip-path="url(#clipPath29)" />
      <path
         id="path30"
         d="m 533.904,234.322 h 6.452 v -32.003 h -6.452 z"
         style="fill:#fdd804;fill-opacity:1;fill-rule:nonzero;stroke:#7b2682;stroke-width:2.25;stroke-dasharray:none;stroke-opacity:1"
         transform="matrix(1.3333333,0,0,-1.3333333,0,793.70133)"
         clip-path="url(#clipPath31)" />
      <path
         id="path32"
         d="m 0,0 c 0,4.66 -0.94,6.677 -3.853,6.677 -3.27,0 -4.033,-3.27 -4.033,-12.326 0,-9.681 1.346,-11.428 4.121,-11.428 2.331,0 4.034,1.209 4.034,8.111 h 6.457 c 0,-6.902 -1.703,-12.862 -10.177,-12.862 -9.678,0 -10.892,6.902 -10.892,16.629 0,9.725 1.214,16.63 10.892,16.63 C 5.786,11.431 6.457,4.66 6.457,0 Z"
         style="fill:#fdd804;fill-opacity:1;fill-rule:nonzero;stroke:#7b2682;stroke-width:2.25;stroke-dasharray:none;stroke-opacity:1"
         transform="matrix(1.3333333,0,0,-1.3333333,745.09453,495.67347)"
         clip-path="url(#clipPath33)" />
      <path
         id="path34"
         d="m 569.527,234.322 h 6.452 v -32.003 h -6.452 z"
         style="fill:#fdd804;fill-opacity:1;fill-rule:nonzero;stroke:#7b2682;stroke-width:2.25;stroke-dasharray:none;stroke-opacity:1"
         transform="matrix(1.3333333,0,0,-1.3333333,0,793.70133)"
         clip-path="url(#clipPath35)" />
      <path
         id="path36"
         d="m 0,0 c 3.813,0 4.44,3.273 4.44,11.878 0,8.56 -0.627,11.876 -4.44,11.876 -3.809,0 -4.435,-3.316 -4.435,-11.876 C -4.435,3.273 -3.809,0 0,0 m 0,28.508 c 9.683,0 10.892,-6.905 10.892,-16.63 C 10.892,2.151 9.683,-4.751 0,-4.751 c -9.678,0 -10.892,6.902 -10.892,16.629 0,9.725 1.214,16.63 10.892,16.63"
         style="fill:#fdd804;fill-opacity:1;fill-rule:nonzero;stroke:#7b2682;stroke-width:2.25;stroke-dasharray:none;stroke-opacity:1"
         transform="matrix(1.3333333,0,0,-1.3333333,787.99053,518.4432)"
         clip-path="url(#clipPath37)" />
      <path
         id="path38"
         d="m 0,0 v -0.942 c 0,-3.004 0.852,-4.93 4.259,-4.93 1.973,0 3.853,1.256 3.853,3.943 0,2.915 -1.479,3.99 -5.738,5.468 -5.737,1.973 -8.381,4.35 -8.381,9.683 0,6.23 3.809,9.414 9.909,9.414 5.737,0 9.903,-2.467 9.903,-8.606 V 13.132 H 7.622 c 0,3.003 -1.033,4.751 -3.5,4.751 -2.913,0 -3.677,-1.836 -3.677,-3.721 0,-1.97 0.588,-3.182 3.319,-4.347 L 8.738,7.664 c 4.842,-2.108 6.1,-4.573 6.1,-8.472 0,-6.767 -4.127,-9.815 -11.118,-9.815 -7.308,0 -10.177,3.405 -10.177,9.323 V 0 Z"
         style="fill:#fdd804;fill-opacity:1;fill-rule:nonzero;stroke:#7b2682;stroke-width:2.25;stroke-dasharray:none;stroke-opacity:1"
         transform="matrix(1.3333333,0,0,-1.3333333,814.51667,510.61387)"
         clip-path="url(#clipPath39)" />
    </g>
    <path
       id="path40"
       clip-path="url(#clipPath41)"
       style="fill:#a3d71d;fill-opacity:1;fill-rule:nonzero;stroke:#7b2682;stroke-width:6;stroke-dasharray:none;stroke-opacity:1"
       d="m -31.525391,-23.169922 a 2.0236041,2.0236041 0 0 0 -2.023437,2.023438 v 12.2011715 a 2.0236041,2.0236041 0 0 0 2.023437,2.0234375 c 4.040157,0 5.774362,0.519389 6.363282,1.1191406 0.58892,0.5997517 0.970703,2.2327063 0.970703,5.8027344 v 50.009766 c 0,1.785526 -0.0732,3.151915 -0.251953,4.074218 -0.178758,0.922304 -0.410323,1.328008 -0.691407,1.603516 -0.562166,0.551016 -2.334357,1.046875 -6.390625,1.046875 a 2.0236041,2.0236041 0 0 0 -2.023437,2.023437 v 12.396485 a 2.0236041,2.0236041 0 0 0 2.023437,2.023437 h 2.607422 a 2.0236041,2.0236041 0 0 0 1.675782,-0.890625 c 2.697528,-3.988721 7.280834,-6.580078 12.683593,-6.580078 5.5423845,0 9.9036875,2.505782 12.4589846,6.53125 a 2.0236041,2.0236041 0 0 0 1.7089844,0.939453 H 0 A 2.0236041,2.0236041 0 0 0 2.0234375,71.154297 V 0 c 0,-3.5894468 0.3535042,-5.2436512 0.90625,-5.8183594 0.5527458,-0.5747082 2.277927,-1.1035156 6.4257813,-1.1035156 A 2.0236041,2.0236041 0 0 0 11.378906,-8.9453125 V -21.146484 a 2.0236041,2.0236041 0 0 0 -2.0234372,-2.023438 z"
       transform="matrix(1.3333333,0,0,-1.3333333,573.63227,439.03187)" />
    <path
       id="path42"
       clip-path="url(#clipPath43)"
       style="fill:#a3d71d;fill-opacity:1;fill-rule:nonzero;stroke:#7b2682;stroke-width:6;stroke-dasharray:none;stroke-opacity:1"
       d="m 0,-30.203125 c -9.6116219,0 -17.603514,7.691884 -17.603516,17.392578 0,9.4919715 7.9967104,17.3906251 17.603516,17.3906251 9.6465943,0 17.181642,-8.0536295 17.181641,-17.3906251 0,-9.666939 -7.6538544,-17.392578 -17.181641,-17.392578 z"
       transform="matrix(1.3333333,0,0,-1.3333333,554.22147,314.30227)" />
  </g>
</svg>
