<?xml version="1.0" encoding="UTF-8" standalone="no"?>
<!-- Created with Inkscape (http://www.inkscape.org/) -->

<svg
   version="1.1"
   id="svg1"
   width="779.40796"
   height="416.69464"
   viewBox="0 0 779.40795 416.69464"
   sodipodi:docname="logoFondo.svg"
   inkscape:version="1.4.2 (f4327f4, 2025-05-13)"
   xmlns:inkscape="http://www.inkscape.org/namespaces/inkscape"
   xmlns:sodipodi="http://sodipodi.sourceforge.net/DTD/sodipodi-0.dtd"
   xmlns="http://www.w3.org/2000/svg"
   xmlns:svg="http://www.w3.org/2000/svg">
  <sodipodi:namedview
     id="namedview1"
     pagecolor="#ffffff"
     bordercolor="#000000"
     borderopacity="0.25"
     inkscape:showpageshadow="2"
     inkscape:pageopacity="0.0"
     inkscape:pagecheckerboard="0"
     inkscape:deskcolor="#d1d1d1"
     inkscape:zoom="1.5282826"
     inkscape:cx="422.04235"
     inkscape:cy="229.34239"
     inkscape:window-width="2560"
     inkscape:window-height="1494"
     inkscape:window-x="-11"
     inkscape:window-y="1609"
     inkscape:window-maximized="1"
     inkscape:current-layer="svg1" />
  <defs
     id="defs1">
    <clipPath
       clipPathUnits="userSpaceOnUse"
       id="clipPath3">
      <path
         d="M 0,595.276 H 841.89 V 0 H 0 Z"
         transform="translate(-247.0846,-305.70061)"
         id="path3" />
    </clipPath>
    <clipPath
       clipPathUnits="userSpaceOnUse"
       id="clipPath5">
      <path
         d="M 0,595.276 H 841.89 V 0 H 0 Z"
         transform="translate(-366.56941,-308.30001)"
         id="path5" />
    </clipPath>
    <clipPath
       clipPathUnits="userSpaceOnUse"
       id="clipPath7">
      <path
         d="M 0,595.276 H 841.89 V 0 H 0 Z"
         transform="translate(-487.78021,-257.05571)"
         id="path7" />
    </clipPath>
    <clipPath
       clipPathUnits="userSpaceOnUse"
       id="clipPath9">
      <path
         d="M 0,595.276 H 841.89 V 0 H 0 Z"
         transform="translate(-564.24241,-270.8786)"
         id="path9" />
    </clipPath>
    <clipPath
       clipPathUnits="userSpaceOnUse"
       id="clipPath11">
      <path
         d="M 0,595.276 H 841.89 V 0 H 0 Z"
         transform="translate(-452.86241,-358.73421)"
         id="path11" />
    </clipPath>
    <clipPath
       clipPathUnits="userSpaceOnUse"
       id="clipPath13">
      <path
         d="M 0,595.276 H 841.89 V 0 H 0 Z"
         transform="translate(-332.96601,-234.3224)"
         id="path13" />
    </clipPath>
    <clipPath
       clipPathUnits="userSpaceOnUse"
       id="clipPath15">
      <path
         d="M 0,595.276 H 841.89 V 0 H 0 Z"
         transform="translate(-372.04531,-234.3224)"
         id="path15" />
    </clipPath>
    <clipPath
       clipPathUnits="userSpaceOnUse"
       id="clipPath17">
      <path
         d="M 0,595.276 H 841.89 V 0 H 0 Z"
         transform="translate(-390.10401,-202.3193)"
         id="path17" />
    </clipPath>
    <clipPath
       clipPathUnits="userSpaceOnUse"
       id="clipPath19">
      <path
         d="M 0,595.276 H 841.89 V 0 H 0 Z"
         transform="translate(-426.27061,-234.3224)"
         id="path19" />
    </clipPath>
    <clipPath
       clipPathUnits="userSpaceOnUse"
       id="clipPath21">
      <path
         d="M 0,595.276 H 841.89 V 0 H 0 Z"
         id="path21" />
    </clipPath>
    <clipPath
       clipPathUnits="userSpaceOnUse"
       id="clipPath23">
      <path
         d="M 0,595.276 H 841.89 V 0 H 0 Z"
         transform="translate(-445.80781,-212.3156)"
         id="path23" />
    </clipPath>
    <clipPath
       clipPathUnits="userSpaceOnUse"
       id="clipPath25">
      <path
         d="M 0,595.276 H 841.89 V 0 H 0 Z"
         transform="translate(-481.74911,-234.3224)"
         id="path25" />
    </clipPath>
    <clipPath
       clipPathUnits="userSpaceOnUse"
       id="clipPath27">
      <path
         d="M 0,595.276 H 841.89 V 0 H 0 Z"
         transform="translate(-491.87271,-220.33901)"
         id="path27" />
    </clipPath>
    <clipPath
       clipPathUnits="userSpaceOnUse"
       id="clipPath29">
      <path
         d="M 0,595.276 H 841.89 V 0 H 0 Z"
         transform="translate(-515.13022,-234.3224)"
         id="path29" />
    </clipPath>
    <clipPath
       clipPathUnits="userSpaceOnUse"
       id="clipPath31">
      <path
         d="M 0,595.276 H 841.89 V 0 H 0 Z"
         id="path31" />
    </clipPath>
    <clipPath
       clipPathUnits="userSpaceOnUse"
       id="clipPath33">
      <path
         d="M 0,595.276 H 841.89 V 0 H 0 Z"
         transform="translate(-558.82091,-223.5209)"
         id="path33" />
    </clipPath>
    <clipPath
       clipPathUnits="userSpaceOnUse"
       id="clipPath35">
      <path
         d="M 0,595.276 H 841.89 V 0 H 0 Z"
         id="path35" />
    </clipPath>
    <clipPath
       clipPathUnits="userSpaceOnUse"
       id="clipPath37">
      <path
         d="M 0,595.276 H 841.89 V 0 H 0 Z"
         transform="translate(-590.99291,-206.44361)"
         id="path37" />
    </clipPath>
    <clipPath
       clipPathUnits="userSpaceOnUse"
       id="clipPath39">
      <path
         d="M 0,595.276 H 841.89 V 0 H 0 Z"
         transform="translate(-610.88752,-212.3156)"
         id="path39" />
    </clipPath>
    <clipPath
       clipPathUnits="userSpaceOnUse"
       id="clipPath41">
      <path
         d="M 0,595.276 H 841.89 V 0 H 0 Z"
         transform="translate(-430.22421,-266.0021)"
         id="path41" />
    </clipPath>
    <clipPath
       clipPathUnits="userSpaceOnUse"
       id="clipPath43">
      <path
         d="M 0,595.276 H 841.89 V 0 H 0 Z"
         transform="translate(-415.66611,-359.54931)"
         id="path43" />
    </clipPath>
  </defs>
  <g
     id="layer-MC0"
     transform="translate(-139.45333,-167.53201)">
    <path
       id="path1"
       d="M 689.146,157.106 H 104.59 v 312.521 h 584.556 z"
       style="fill:#7b2682;fill-opacity:1;fill-rule:nonzero;stroke:none"
       transform="matrix(1.3333333,0,0,-1.3333333,0,793.70133)" />
    <path
       id="path2"
       d="m 0,0 c 21.079,0 29.241,9.274 29.241,32.325 0,25.022 -7.878,31.482 -28.684,31.482 H -9.274 V 0 Z m 5.065,-88.556 h 1.123 v -18.834 h -63.829 v 18.834 c 10.692,0 14.346,3.652 14.346,13.773 V 50.034 c 0,10.121 -3.654,13.773 -14.346,13.773 V 82.646 H 2.807 c 39.925,0 59.041,-15.467 59.041,-49.476 0,-27.266 -13.222,-44.138 -35.985,-47.796 21.65,-4.493 26.423,-18.272 28.383,-46.098 1.418,-19.405 0.847,-29.524 8.162,-29.524 3.933,0 7.034,4.217 7.034,11.252 v 13.211 H 80.68 v -8.156 c 0,-26.427 -8.148,-37.953 -28.394,-37.953 -11.808,0 -19.388,3.656 -24.459,12.648 -7.024,12.653 -5.621,28.684 -6.464,48.634 -0.84,21.65 -6.461,30.368 -25.296,30.368 -1.687,0 -3.371,0 -5.341,-0.28 v -54.259 c 0,-10.121 3.654,-13.773 14.339,-13.773"
       style="fill:#a3d71d;fill-opacity:1;fill-rule:nonzero;stroke:none"
       transform="matrix(1.3333333,0,0,-1.3333333,329.44613,386.10053)"
       clip-path="url(#clipPath3)" />
    <path
       id="path4"
       d="m 0,0 v 12.609 c 0,13.22 -2.03,19.925 -10.171,19.925 -7.325,0 -10.16,-6.505 -10.16,-20.334 V 0 Z m -20.331,-18.511 c 0,-22.765 2.835,-34.162 13.814,-34.162 9.359,0 12.815,9.764 12.815,30.097 h 14.037 c 0,-1.623 0.198,-3.248 0.198,-4.673 0,-26.033 -9.962,-39.044 -29.488,-39.044 -26.221,0 -34.365,17.49 -34.365,54.905 0,37.825 10.373,56.537 33.954,56.537 11.397,0 20.345,-5.895 25.834,-17.289 3.867,-7.933 4.065,-17.08 4.065,-28.262 v -3.257 -8.948 h -40.864 z"
       style="fill:#a3d71d;fill-opacity:1;fill-rule:nonzero;stroke:none"
       transform="matrix(1.3333333,0,0,-1.3333333,488.7592,382.63467)"
       clip-path="url(#clipPath5)" />
    <path
       id="path6"
       d="M 0,0 V -12.2 H -40.063 V 0 c 8.338,0 9.356,1.62 9.356,8.946 v 63.241 c 0,7.326 -1.018,8.748 -9.356,8.748 V 93.338 H -9.554 V 80.536 c 6.701,10.77 14.225,15.857 23.992,15.857 15.657,0 21.149,-10.368 21.149,-32.138 V 8.954 C 35.587,1.62 36.601,0 45.142,0 V -12.2 H 5.078 V 0 c 7.524,0 8.541,1.827 8.541,8.954 v 58.151 c 0,7.732 -2.849,11.593 -8.342,11.593 -9.554,0 -13.814,-7.936 -13.814,-24.195 V 8.954 C -8.537,1.827 -7.733,0.195 0,0"
       style="fill:#a3d71d;fill-opacity:1;fill-rule:nonzero;stroke:none"
       transform="matrix(1.3333333,0,0,-1.3333333,650.3736,450.9604)"
       clip-path="url(#clipPath7)" />
    <path
       id="path8"
       d="m 0,0 c 0,-6.101 4.681,-11.181 10.78,-11.181 8.956,0 12.613,7.327 12.613,22.569 V 29.082 C 11.996,16.879 0,12.813 0,0 m 1.425,-29.07 c -14.225,0 -23.181,10.162 -23.181,26.839 0,9.145 2.651,16.272 7.939,21.141 7.52,6.914 15.851,9.77 22.354,13.428 10.784,6.1 15.87,11.799 15.87,21.144 0,10.784 -6.096,17.491 -16.065,17.491 -7.325,0 -12.814,-3.657 -15.043,-9.755 1.421,0.404 2.835,0.404 4.061,0.404 6.308,0 9.763,-3.866 9.763,-11.19 0,-6.704 -4.681,-11.177 -12.003,-11.177 -8.739,0 -14.225,5.688 -14.225,15.255 0,15.655 12.602,28.06 32.525,28.06 21.558,0 31.931,-11.185 31.931,-33.762 v -58.361 -1.424 c 0,-3.253 0.198,-5.082 3.047,-5.082 3.052,0 3.87,3.856 3.87,11.796 0,2.032 -0.212,4.064 -0.212,6.506 h 7.931 v -6.919 c 0,-16.674 -5.082,-24.394 -17.486,-24.394 -9.554,0 -15.451,4.461 -18.094,13.819 C 18.502,-24.807 11.599,-29.07 1.425,-29.07"
       style="fill:#a3d71d;fill-opacity:1;fill-rule:nonzero;stroke:none"
       transform="matrix(1.3333333,0,0,-1.3333333,752.3232,432.52987)"
       clip-path="url(#clipPath9)" />
    <path
       id="path10"
       d="m 0,0 c 10.433,1.389 21.77,2.173 33.649,2.173 11.904,0 23.241,-0.784 33.67,-2.173 3.679,7.543 8.598,14.755 15.161,20.161 0,0 -30.013,-15.634 -32.735,15.639 0,0 -2.555,-16.027 -16.075,-16.578 C 20.129,19.773 17.578,35.8 17.578,35.8 14.852,4.527 -15.157,20.161 -15.157,20.161 -8.597,14.755 -3.682,7.543 0,0"
       style="fill:#fdd804;fill-opacity:1;fill-rule:nonzero;stroke:none"
       transform="matrix(1.3333333,0,0,-1.3333333,603.81653,315.38907)"
       clip-path="url(#clipPath11)" />
    <path
       id="path12"
       d="m 0,0 h 9.595 l 4.572,-22.589 h 0.088 L 18.871,0 h 9.546 V -32.003 H 22.504 V -6.454 H 22.411 L 16.722,-32.003 H 11.7 L 6.007,-6.454 H 5.918 V -32.003 H 0 Z"
       style="fill:#fdd804;fill-opacity:1;fill-rule:nonzero;stroke:none"
       transform="matrix(1.3333333,0,0,-1.3333333,443.95467,481.27147)"
       clip-path="url(#clipPath13)" />
    <path
       id="path14"
       d="m 0,0 v -22.32 c 0,-3.185 0.764,-5.559 3.764,-5.559 3.006,0 3.765,2.374 3.765,5.559 V 0 h 6.457 v -22.32 c 0,-8.158 -4.979,-10.31 -10.222,-10.31 -5.242,0 -10.221,1.748 -10.221,10.31 V 0 Z"
       style="fill:#fdd804;fill-opacity:1;fill-rule:nonzero;stroke:none"
       transform="matrix(1.3333333,0,0,-1.3333333,496.0604,481.27147)"
       clip-path="url(#clipPath15)" />
    <path
       id="path16"
       d="M 0,0 V 32.003 H 6.452 V 5.289 H 17.883 V 0 Z"
       style="fill:#fdd804;fill-opacity:1;fill-rule:nonzero;stroke:none"
       transform="matrix(1.3333333,0,0,-1.3333333,520.13867,523.94227)"
       clip-path="url(#clipPath17)" />
    <path
       id="path18"
       d="m 0,0 v -5.289 h -6.991 v -26.714 h -6.456 v 26.714 h -6.991 V 0 Z"
       style="fill:#fdd804;fill-opacity:1;fill-rule:nonzero;stroke:none"
       transform="matrix(1.3333333,0,0,-1.3333333,568.3608,481.27147)"
       clip-path="url(#clipPath19)" />
    <path
       id="path20"
       d="m 429.36,234.322 h 6.452 v -32.003 h -6.452 z"
       style="fill:#fdd804;fill-opacity:1;fill-rule:nonzero;stroke:none"
       transform="matrix(1.3333333,0,0,-1.3333333,0,793.70133)"
       clip-path="url(#clipPath21)" />
    <path
       id="path22"
       d="m 0,0 v -0.942 c 0,-3.004 0.852,-4.93 4.259,-4.93 1.973,0 3.853,1.256 3.853,3.943 0,2.915 -1.479,3.99 -5.738,5.468 -5.737,1.973 -8.381,4.35 -8.381,9.683 0,6.23 3.809,9.414 9.909,9.414 5.737,0 9.903,-2.467 9.903,-8.606 V 13.132 H 7.622 c 0,3.003 -1.033,4.751 -3.5,4.751 -2.913,0 -3.677,-1.836 -3.677,-3.721 0,-1.97 0.588,-3.182 3.319,-4.347 L 8.738,7.664 c 4.842,-2.108 6.1,-4.573 6.1,-8.472 0,-6.767 -4.127,-9.815 -11.118,-9.815 -7.308,0 -10.177,3.405 -10.177,9.323 V 0 Z"
       style="fill:#fdd804;fill-opacity:1;fill-rule:nonzero;stroke:none"
       transform="matrix(1.3333333,0,0,-1.3333333,594.4104,510.61387)"
       clip-path="url(#clipPath23)" />
    <path
       id="path24"
       d="m 0,0 v -5.289 h -11.431 v -7.529 h 10.76 v -5.29 h -10.76 v -8.606 H 0.45 v -5.289 H -17.883 V 0 Z"
       style="fill:#fdd804;fill-opacity:1;fill-rule:nonzero;stroke:none"
       transform="matrix(1.3333333,0,0,-1.3333333,642.33213,481.27147)"
       clip-path="url(#clipPath25)" />
    <path
       id="path26"
       d="m 0,0 h 2.692 c 3.089,0 4.842,1.344 4.842,4.795 0,2.959 -1.572,4.438 -4.484,4.438 H 0 Z m -6.452,13.983 h 11.92 c 5.292,0 8.518,-2.778 8.518,-8.246 0,-4.259 -1.704,-7.127 -5.336,-7.888 v -0.091 c 4.396,-0.583 5.067,-3.003 5.155,-9.771 0.049,-3.363 0.225,-5.111 1.434,-5.737 v -0.27 h -6.99 c -0.627,0.896 -0.764,2.108 -0.808,3.361 L 7.265,-8.518 C 7.172,-6.007 6.051,-4.484 3.451,-4.484 H 0 V -18.02 h -6.452 z"
       style="fill:#fdd804;fill-opacity:1;fill-rule:nonzero;stroke:none"
       transform="matrix(1.3333333,0,0,-1.3333333,655.83027,499.916)"
       clip-path="url(#clipPath27)" />
    <path
       id="path28"
       d="M 0,0 4.523,-23.666 H 4.66 L 9.409,0 h 6.682 L 8.738,-32.003 H 0.445 L -6.907,0 Z"
       style="fill:#fdd804;fill-opacity:1;fill-rule:nonzero;stroke:none"
       transform="matrix(1.3333333,0,0,-1.3333333,686.84027,481.27147)"
       clip-path="url(#clipPath29)" />
    <path
       id="path30"
       d="m 533.904,234.322 h 6.452 v -32.003 h -6.452 z"
       style="fill:#fdd804;fill-opacity:1;fill-rule:nonzero;stroke:none"
       transform="matrix(1.3333333,0,0,-1.3333333,0,793.70133)"
       clip-path="url(#clipPath31)" />
    <path
       id="path32"
       d="m 0,0 c 0,4.66 -0.94,6.677 -3.853,6.677 -3.27,0 -4.033,-3.27 -4.033,-12.326 0,-9.681 1.346,-11.428 4.121,-11.428 2.331,0 4.034,1.209 4.034,8.111 h 6.457 c 0,-6.902 -1.703,-12.862 -10.177,-12.862 -9.678,0 -10.892,6.902 -10.892,16.629 0,9.725 1.214,16.63 10.892,16.63 C 5.786,11.431 6.457,4.66 6.457,0 Z"
       style="fill:#fdd804;fill-opacity:1;fill-rule:nonzero;stroke:none"
       transform="matrix(1.3333333,0,0,-1.3333333,745.09453,495.67347)"
       clip-path="url(#clipPath33)" />
    <path
       id="path34"
       d="m 569.527,234.322 h 6.452 v -32.003 h -6.452 z"
       style="fill:#fdd804;fill-opacity:1;fill-rule:nonzero;stroke:none"
       transform="matrix(1.3333333,0,0,-1.3333333,0,793.70133)"
       clip-path="url(#clipPath35)" />
    <path
       id="path36"
       d="m 0,0 c 3.813,0 4.44,3.273 4.44,11.878 0,8.56 -0.627,11.876 -4.44,11.876 -3.809,0 -4.435,-3.316 -4.435,-11.876 C -4.435,3.273 -3.809,0 0,0 m 0,28.508 c 9.683,0 10.892,-6.905 10.892,-16.63 C 10.892,2.151 9.683,-4.751 0,-4.751 c -9.678,0 -10.892,6.902 -10.892,16.629 0,9.725 1.214,16.63 10.892,16.63"
       style="fill:#fdd804;fill-opacity:1;fill-rule:nonzero;stroke:none"
       transform="matrix(1.3333333,0,0,-1.3333333,787.99053,518.4432)"
       clip-path="url(#clipPath37)" />
    <path
       id="path38"
       d="m 0,0 v -0.942 c 0,-3.004 0.852,-4.93 4.259,-4.93 1.973,0 3.853,1.256 3.853,3.943 0,2.915 -1.479,3.99 -5.738,5.468 -5.737,1.973 -8.381,4.35 -8.381,9.683 0,6.23 3.809,9.414 9.909,9.414 5.737,0 9.903,-2.467 9.903,-8.606 V 13.132 H 7.622 c 0,3.003 -1.033,4.751 -3.5,4.751 -2.913,0 -3.677,-1.836 -3.677,-3.721 0,-1.97 0.588,-3.182 3.319,-4.347 L 8.738,7.664 c 4.842,-2.108 6.1,-4.573 6.1,-8.472 0,-6.767 -4.127,-9.815 -11.118,-9.815 -7.308,0 -10.177,3.405 -10.177,9.323 V 0 Z"
       style="fill:#fdd804;fill-opacity:1;fill-rule:nonzero;stroke:none"
       transform="matrix(1.3333333,0,0,-1.3333333,814.51667,510.61387)"
       clip-path="url(#clipPath39)" />
    <path
       id="path40"
       d="m 0,0 v 71.155 h -0.39 c -2.92,-4.6 -7.998,-7.472 -14.168,-7.472 -6.056,0 -11.291,2.934 -14.36,7.472 h -2.608 V 58.757 c 8.342,0 9.359,-1.419 9.359,-8.748 V 0 c 0,-7.327 -1.017,-8.946 -9.359,-8.946 v -12.2 H 9.356 v 12.2 C 0.805,-8.946 0,-7.327 0,0"
       style="fill:#a3d71d;fill-opacity:1;fill-rule:nonzero;stroke:none"
       transform="matrix(1.3333333,0,0,-1.3333333,573.63227,439.03187)"
       clip-path="url(#clipPath41)" />
    <path
       id="path42"
       d="m 0,0 c 7.116,0 12.602,-5.897 12.602,-12.811 0,-7.524 -5.28,-12.813 -12.602,-12.813 -7.322,0 -13.023,5.49 -13.023,12.813 C -13.023,-6.101 -6.911,0 0,0"
       style="fill:#a3d71d;fill-opacity:1;fill-rule:nonzero;stroke:none"
       transform="matrix(1.3333333,0,0,-1.3333333,554.22147,314.30227)"
       clip-path="url(#clipPath43)" />
  </g>
</svg>
